HIERARCHY
ROOT Bip001_Pelvis
{
  OFFSET 7.937 94.8971 -8.5489
  CHANNELS 6 Xposition Yposition Zposition Zrotation Xrotation Yrotation
  JOINT Bip001_Spine
  {
    OFFSET 1.44608e-005 10.4157 -0.0118244
    CHANNELS 3 Zrotation Xrotation Yrotation
    JOINT Bip001_L_Thigh
    {
      OFFSET 11.2582 -10.4157 0.0118432
      CHANNELS 3 Zrotation Xrotation Yrotation
      JOINT Bip001_L_Calf
      {
        OFFSET -0.720717 -44.8687 0.366937
        CHANNELS 3 Zrotation Xrotation Yrotation
        JOINT Bip001_L_Foot
        {
          OFFSET -0.664439 -41.3745 -3.62995
          CHANNELS 3 Zrotation Xrotation Yrotation
          JOINT Bip001_L_Toe0
          {
            OFFSET 0.0541047 -10.4146 13.4033
            CHANNELS 3 Zrotation Xrotation Yrotation
            End Site
            {
              OFFSET -1.04503e-005 0 7.70137
            }
          }
        }
      }
    }
    JOINT Bip001_R_Thigh
    {
      OFFSET -11.2582 -10.4156 0.0118122
      CHANNELS 3 Zrotation Xrotation Yrotation
      JOINT Bip001_R_Calf
      {
        OFFSET 0.72059 -44.8687 0.36676
        CHANNELS 3 Zrotation Xrotation Yrotation
        JOINT Bip001_R_Foot
        {
          OFFSET 0.664321 -41.3745 -3.62979
          CHANNELS 3 Zrotation Xrotation Yrotation
          JOINT Bip001_R_Toe0
          {
            OFFSET -0.05417 -10.4146 13.4033
            CHANNELS 3 Zrotation Xrotation Yrotation
            End Site
            {
              OFFSET -1.04873e-005 0 7.70137
            }
          }
        }
      }
    }
    JOINT Bip001_Spine1
    {
      OFFSET 1.90638e-005 14.8539 1.10727
      CHANNELS 3 Zrotation Xrotation Yrotation
      JOINT Bip001_Spine2
      {
        OFFSET 2.28934e-005 14.7848 -1.7233
        CHANNELS 3 Zrotation Xrotation Yrotation
        JOINT Bip001_Neck
        {
          OFFSET 2.24514e-005 15.6905 -0.498826
          CHANNELS 3 Zrotation Xrotation Yrotation
          JOINT Bip001_L_Clavicle
          {
            OFFSET 6.17691 -0.000591152 0.00852867
            CHANNELS 3 Zrotation Xrotation Yrotation
            JOINT Bip001_L_UpperArm
            {
              OFFSET 11.773 -0.0611878 0.00197697
              CHANNELS 3 Zrotation Xrotation Yrotation
              JOINT Bip001_L_Forearm
              {
                OFFSET 26.4515 0.0817568 -2.19579
                CHANNELS 3 Zrotation Xrotation Yrotation
                JOINT Bip001_L_Hand
                {
                  OFFSET 32.8677 0.156744 1.67112
                  CHANNELS 3 Zrotation Xrotation Yrotation
                  JOINT Bip001_L_Finger0
                  {
                    OFFSET 6.16268 -2.25226 6.01674
                    CHANNELS 3 Zrotation Xrotation Yrotation
                    End Site
                    {
                      OFFSET 4.30499 -1.46662 0.618148
                    }
                  }
                  JOINT Bip001_L_Finger1
                  {
                    OFFSET 11.2957 -0.718374 -0.201963
                    CHANNELS 3 Zrotation Xrotation Yrotation
                    End Site
                    {
                      OFFSET 6.31952 -0.405163 -0.0802303
                    }
                  }
                }
              }
            }
          }
          JOINT Bip001_R_Clavicle
          {
            OFFSET -6.17691 -0.000574027 0.00851165
            CHANNELS 3 Zrotation Xrotation Yrotation
            JOINT Bip001_R_UpperArm
            {
              OFFSET -11.773 -0.0611516 0.00194365
              CHANNELS 3 Zrotation Xrotation Yrotation
              JOINT Bip001_R_Forearm
              {
                OFFSET -26.4514 0.0822334 -2.19736
                CHANNELS 3 Zrotation Xrotation Yrotation
                JOINT Bip001_R_Hand
                {
                  OFFSET -32.8677 0.156817 1.67144
                  CHANNELS 3 Zrotation Xrotation Yrotation
                  JOINT Bip001_R_Finger0
                  {
                    OFFSET -6.1627 -2.25224 6.0167
                    CHANNELS 3 Zrotation Xrotation Yrotation
                    End Site
                    {
                      OFFSET -4.30499 -1.46662 0.618134
                    }
                  }
                  JOINT Bip001_R_Finger1
                  {
                    OFFSET -11.2958 -0.718344 -0.201994
                    CHANNELS 3 Zrotation Xrotation Yrotation
                    End Site
                    {
                      OFFSET -6.31952 -0.405146 -0.0802475
                    }
                  }
                }
              }
            }
          }
          JOINT Bip001_Head
          {
            OFFSET 1.11782e-005 11.4912 2.09908
            CHANNELS 3 Zrotation Xrotation Yrotation
            End Site
            {
              OFFSET 2.95144e-005 21.2823 -2.83069e-005
            }
          }
        }
      }
    }
  }
}
MOTION
Frames:	6
Frame Time:	0.04
8.44482 95.3208 -7.02249 -1.58322 3.26664 16.0309 -1.33622 -0.459638 3.46 5.09061 -14.4661 0.959521 -0.465295 17.3244 -7.55664 -1.85694 -5.90579 -3.21448 0.642639 -10.0033 -0.212888 -5.84602 -2.67577 -6.79725 0.602833 11.802 -3.78589 0.418994 -8.88924 -15.5474 0.360771 -11.6395 -0.021597 -2.62027 -1.01362 6.91332 -2.62027 -1.01354 6.91334 -3.41741 -4.12143 -3.89122 -29.4383 8.04266 -7.0397 -40.4367 37.5955 0.110297 12.9879 4.76586 -22.6715 -5.34198 -0.207322 -0.131391 1.59028e-015 -9.54166e-015 -3.18055e-015 -1.59028e-015 -6.36111e-015 -0 -6.59452 3.5956 26.6668 0.419804 -13.5728 53.6309 -34.6015 9.67837 26.5944 -22.5164 12.5787 -13.1247 -1.59028e-015 -3.18055e-015 -4.77083e-015 -1.59028e-015 -1.59028e-015 -5.56597e-015 1.83865 -0.608335 -5.07324 
8.47176 95.3194 -6.92276 -1.64959 3.30559 16.4177 -1.37788 -0.456775 3.53728 5.09128 -14.5645 0.975994 -0.372485 17.3823 -7.92149 -1.84355 -5.94105 -3.31859 0.639487 -10.0085 -0.241081 -5.73291 -2.49353 -6.93974 0.644144 11.6282 -3.9485 0.297876 -8.89552 -15.7223 0.458852 -11.6626 -0.0283601 -2.68655 -0.996576 7.06947 -2.68656 -0.996512 7.06949 -4.07262 -4.97666 -4.02012 -29.2361 8.709 -6.25837 -40.1451 37.2129 0.237035 12.6451 4.78048 -22.3521 -5.40849 -0.209712 -0.0248948 -3.18055e-015 -3.18055e-015 3.18055e-015 -3.18055e-015 0 3.18055e-015 -6.69212 4.25993 27.4605 -0.718834 -13.4137 53.3401 -28.5332 11.6301 20.0669 -34.296 9.41885 -7.66711 -3.18055e-015 -6.36111e-015 -3.77691e-015 -3.18055e-015 -6.36111e-015 -6.95746e-015 2.55886 -0.0573582 -5.49422 
8.4839 95.3261 -6.86737 -1.75814 3.37567 16.6301 -1.39701 -0.419141 3.64323 5.10409 -14.7567 -0.478847 -0.757975 17.4282 -7.26811 -1.75819 -5.98694 -2.76942 0.641438 -10.0103 -0.235658 -5.59712 -2.44396 -6.89537 0.668763 11.4094 -4.26404 0.195288 -8.8225 -15.8007 0.561143 -11.6854 -0.0277484 -2.71348 -0.924676 7.28362 -2.71373 -0.924715 7.28365 -4.9015 -6.36682 -4.46602 -29.1739 9.76517 -5.05875 -39.6824 36.9527 0.301026 12.5024 5.03968 -22.1948 -5.47201 -0.220865 0.0601215 3.18055e-015 -3.18055e-015 -0 -7.95139e-016 -6.36111e-015 3.18055e-015 -5.16823 5.94098 27.7704 5.91894 -16.5311 53.6392 -36.6869 13.7262 28.5454 -26.4619 13.669 -8.97636 3.18055e-015 1.59028e-015 3.97569e-015 3.18055e-015 1.59028e-015 5.96354e-015 3.11167 1.06585 -6.20182 
8.50724 95.3266 -6.86634 -1.75118 3.45722 16.6675 -1.37696 -0.419022 3.67779 5.01448 -14.8057 0.0785473 -0.574047 17.3878 -8.03334 -1.71979 -5.96701 -2.65476 0.641885 -10.0121 -0.236655 -5.65733 -2.5105 -6.95012 0.638244 11.4334 -4.34506 0.246228 -8.83819 -15.7399 0.562223 -11.6912 -0.0252172 -2.66841 -0.922634 7.35297 -2.66849 -0.922628 7.35291 -5.04215 -6.36869 -4.78693 -28.8279 9.78863 -5.22977 -40.7564 36.526 1.37532 12.2518 4.61562 -22.2582 -4.77864 -0.144056 0.263628 -1.59028e-015 0 -0 -7.95139e-016 0 -0 -4.76774 6.02191 27.1425 5.1074 -15.8444 52.9852 -38.4708 12.092 31.2864 -24.9181 13.9051 -11.1209 -1.59028e-015 4.77083e-015 3.77691e-015 -2.38542e-015 1.59028e-015 7.95139e-016 2.26389 0.915221 -6.3493 
8.57645 95.3503 -6.88314 -1.58759 3.29464 16.5104 -1.36316 -0.38946 3.58306 4.92453 -14.4439 1.15132 -0.334654 17.1237 -8.61776 -1.70882 -5.84015 -2.8919 0.634703 -10.0137 -0.280475 -5.82501 -2.35368 -6.91113 0.63989 11.3968 -4.26153 0.281166 -8.78273 -15.6295 0.575074 -11.7009 0.0135121 -2.6422 -0.861684 7.16396 -2.64224 -0.861804 7.16398 -4.88571 -6.05586 -4.71237 -28.6197 9.54293 -5.52032 -41.7241 36.8464 2.52042 12.1725 4.42647 -22.1451 -4.91683 -0.179721 0.172903 -1.76556e-031 -3.18055e-015 -3.18055e-015 -1.59028e-015 -3.18056e-015 -6.36111e-015 -4.86436 5.71173 27.2849 3.39867 -15.7242 53.8671 -38.1042 13.3613 30.0491 -20.6729 12.55 -13.0262 0 3.18055e-015 -0 6.62086e-032 3.18056e-015 -1.19271e-015 1.43392 1.0559 -6.05978 
8.63006 95.3707 -6.9798 -1.59621 3.19987 16.0339 -1.32335 -0.36955 3.42243 5.01654 -14.3094 1.11315 -0.526593 17.0881 -8.22956 -1.62404 -5.84033 -2.57154 0.635366 -10.0152 -0.279299 -5.87861 -2.41363 -6.76838 0.596899 11.2866 -4.07179 0.338646 -8.58435 -15.3543 0.595017 -11.7195 0.0625098 -2.56604 -0.815918 6.84333 -2.56605 -0.815919 6.84334 -5.2862 -5.84124 -4.35664 -28.0115 9.32289 -5.33915 -42.0026 37.6193 2.8581 12.4398 5.77752 -21.4238 -5.43856 -0.103841 -0.529232 -3.18055e-015 -6.36111e-015 -0 -3.97569e-015 -6.36111e-015 -0 -4.81453 5.43245 27.387 4.25446 -14.5362 53.4843 -39.5081 9.33075 32.4344 -18.0674 13.0454 -14.0759 -6.36111e-015 1.59028e-015 3.97569e-016 -3.18055e-015 0 -1.98785e-015 1.73974 1.72693 -5.90319 
